<svg id="Layer_1" data-name="Layer 1" xmlns="http://www.w3.org/2000/svg" xmlns:xlink="http://www.w3.org/1999/xlink" viewBox="0 0 734 484.44"><defs><style>.cls-1{fill:none;}.cls-2{clip-path:url(#clip-path);}.cls-3{clip-path:url(#clip-path-2);}.cls-4{fill:#ffce00;}.cls-5{fill:#333;}</style><clipPath id="clip-path"><rect class="cls-1" x="32.84" y="152.74" width="662.48" height="331.65"/></clipPath><clipPath id="clip-path-2"><rect class="cls-1" x="32.84" y="152.23" width="662.82" height="332.21"/></clipPath></defs><title>Artboard 1</title><g class="cls-2"><g class="cls-3"><path class="cls-4" d="M364.07,152.74C181.14,152.74,32.84,301,32.84,484c0,.15,0,.3,0,.45H695.31c0-.15,0-.3,0-.45C695.32,301,547,152.74,364.07,152.74"/></g></g><g class="cls-3"><polyline class="cls-5" points="372.48 458.62 352.64 458.62 295.73 325.64 321.79 325.64 361.19 425.53 362.97 425.53 402.79 325.64 428.44 325.64 372.48 458.62"/><path class="cls-5" d="M294.71,401c.23-1.63.7-8.19.7-12.41-.23-37.91-30.89-66.48-66-66.48-36.53,0-66.48,29.26-66.48,68.14,0,36.74,29.25,68.35,66,68.35,19.12,0,46.88-9.56,60.25-39.2H265.64c-8,11.39-20.74,18.78-35.12,18.78A42.41,42.41,0,0,1,199,423.85a47.7,47.7,0,0,1-13.1-32.93,49.1,49.1,0,0,1,6.77-25.6,42.91,42.91,0,0,1,22.42-18.47,52.52,52.52,0,0,1,5.19-1.77v.26a42.44,42.44,0,0,1,8.89-1c23.41,0,41.83,17,42.77,37.93H196.06a51.77,51.77,0,0,0-.64,8.13A50.27,50.27,0,0,0,196.54,401h4v0h33.86"/><path class="cls-5" d="M429,401c-.23-1.63-.7-8.19-.7-12.41.23-37.91,30.9-66.48,66-66.48,36.53,0,66.49,29.26,66.49,68.14,0,36.74-29.26,68.36-66,68.35-19.12,0-46.87-9.55-60.25-39.2h23.53c8,11.39,20.73,18.78,35.11,18.78a42.43,42.43,0,0,0,31.56-14.34,47.74,47.74,0,0,0,13.1-32.93,49.11,49.11,0,0,0-6.78-25.6,42.92,42.92,0,0,0-22.41-18.47c-1.67-.66-3.39-1.27-5.2-1.79v.27a42.49,42.49,0,0,0-8.89-1c-23.41,0-41.83,17-42.77,37.93h62.31v0H527.7a52.89,52.89,0,0,1,.62,8.14,50.64,50.64,0,0,1-1.1,10.56h-4v0H429"/></g></svg>